<?xml version="1.0" standalone="no"?>
<!DOCTYPE svg PUBLIC "-//W3C//DTD SVG 20010904//EN"
 "http://www.w3.org/TR/2001/REC-SVG-20010904/DTD/svg10.dtd">
<svg version="1.0" xmlns="http://www.w3.org/2000/svg"
 width="500.000000pt" height="500.000000pt" viewBox="0 0 500.000000 500.000000"
 preserveAspectRatio="xMidYMid meet">
<metadata>
Created by potrace 1.11, written by Peter Selinger 2001-2013
</metadata>
<g transform="translate(0.000000,500.000000) scale(0.100000,-0.100000)"
fill="#000000" stroke="none">
<path d="M2492 4988 c-5 -7 -10 -57 -9 -111 0 -83 3 -99 18 -107 17 -10 48 -4
50 9 6 30 4 190 -3 204 -10 20 -41 23 -56 5z"/>
<path d="M3713 4648 c-6 -7 -29 -46 -52 -86 -48 -82 -49 -115 -3 -110 21 2 36
19 74 83 26 44 45 89 44 100 -3 24 -47 33 -63 13z"/>
<path d="M1278 4643 c-28 -7 -32 -40 -9 -72 12 -16 21 -32 21 -35 0 -3 14 -28
31 -56 23 -37 37 -50 54 -50 39 0 39 32 3 100 -42 77 -78 118 -100 113z"/>
<path d="M2498 4630 c-13 -8 -16 -27 -16 -107 1 -54 5 -104 11 -110 14 -19 45
-16 55 5 15 29 8 202 -9 213 -17 11 -20 11 -41 -1z"/>
<path d="M3025 4516 c-13 -9 -63 -168 -90 -288 -2 -9 -13 -50 -24 -91 -23 -80
-21 -102 10 -110 29 -8 49 31 74 143 2 8 22 82 44 163 23 82 41 154 41 161 0
21 -36 36 -55 22z"/>
<path d="M1953 4488 c-6 -7 -9 -20 -8 -29 4 -24 64 -246 81 -298 8 -25 14 -55
14 -67 0 -13 5 -26 10 -29 6 -4 8 -10 5 -15 -3 -5 4 -19 15 -30 16 -16 24 -18
40 -10 25 13 25 22 -1 118 -11 42 -22 86 -25 96 -2 10 -14 58 -28 105 -13 47
-27 99 -31 116 -3 16 -11 36 -17 42 -13 17 -43 17 -55 1z"/>
<path d="M3509 4298 c-75 -123 -80 -137 -54 -158 22 -19 49 -3 74 43 13 23 34
62 47 86 18 33 21 48 13 62 -18 34 -45 22 -80 -33z"/>
<path d="M1441 4308 c-6 -16 -1 -35 17 -68 66 -120 100 -149 126 -108 10 17 0
46 -36 103 -7 10 -23 36 -36 57 -26 44 -58 51 -71 16z"/>
<path d="M2429 4172 c-71 -75 -239 -292 -239 -309 0 -4 -9 -18 -18 -31 l-18
-24 -125 60 c-119 58 -349 142 -387 142 -16 0 -23 -17 -40 -97 -26 -118 -31
-142 -38 -211 -3 -28 -7 -60 -9 -70 -2 -9 -4 -53 -4 -98 l-1 -80 -77 -2 c-43
-1 -87 -4 -98 -6 -11 -2 -49 -7 -85 -11 -36 -3 -114 -17 -175 -31 -60 -13
-113 -24 -117 -24 -28 0 51 -242 135 -412 34 -71 59 -128 55 -128 -8 0 -199
-128 -208 -139 -3 -3 -36 -32 -75 -63 -38 -31 -89 -77 -113 -101 l-43 -44 68
-66 c82 -79 191 -165 293 -231 41 -27 77 -50 79 -52 2 -2 -19 -49 -47 -106
-72 -144 -152 -360 -152 -409 0 -33 270 -84 494 -93 68 -3 61 11 70 -141 3
-55 8 -111 11 -125 2 -13 7 -42 11 -65 7 -52 43 -216 50 -226 11 -19 251 65
419 147 55 27 103 49 107 49 3 0 33 -40 66 -90 84 -127 237 -312 281 -339 23
-15 205 195 306 354 27 41 49 76 50 78 1 1 62 -27 136 -62 74 -35 184 -80 244
-99 168 -54 152 -53 160 -10 5 21 9 43 11 48 15 61 26 117 30 150 3 22 7 45 9
52 4 13 14 113 20 208 2 33 4 62 4 66 1 3 25 5 54 5 55 0 201 12 227 19 8 2
33 6 55 10 22 3 82 15 133 26 85 20 92 23 87 43 -44 154 -95 288 -162 420 -24
48 -43 89 -41 90 2 1 41 27 88 58 90 58 222 163 304 241 56 52 56 48 -23 121
-65 61 -91 83 -151 129 -30 23 -60 47 -66 53 -7 6 -44 30 -83 53 -39 24 -71
45 -71 48 0 2 18 37 39 78 73 138 181 438 162 449 -33 21 -300 66 -431 73 -63
3 -117 7 -119 9 -3 3 -6 28 -7 57 -4 78 -16 221 -19 227 -2 3 -6 23 -9 45 -3
22 -8 51 -11 65 -3 14 -7 34 -9 45 -16 79 -30 115 -45 115 -49 0 -308 -97
-432 -162 -44 -23 -81 -39 -83 -37 -2 2 -24 36 -49 76 -25 39 -53 80 -61 90
-8 10 -37 47 -65 82 -52 66 -150 173 -168 184 -6 4 -44 -28 -84 -71z"/>
<path d="M3767 3822 c-138 -140 -165 -171 -160 -190 5 -22 14 -26 43 -22 20 2
340 326 340 343 0 18 -21 37 -40 37 -9 0 -91 -76 -183 -168z"/>
<path d="M1033 3953 c-3 -10 -8 -21 -10 -25 -1 -3 72 -81 163 -172 171 -172
204 -193 219 -145 6 18 -20 49 -161 190 -93 93 -177 169 -187 169 -10 0 -20
-8 -24 -17z"/>
<path d="M353 3724 c-7 -18 12 -64 27 -64 6 0 29 -12 52 -26 72 -46 104 -56
122 -39 25 26 7 50 -76 98 -85 50 -115 57 -125 31z"/>
<path d="M4581 3699 c-34 -21 -65 -39 -68 -39 -13 0 -30 -35 -26 -51 8 -28 31
-31 71 -9 149 82 147 80 138 114 -9 37 -38 33 -115 -15z"/>
<path d="M676 3545 c-29 -29 -21 -40 69 -92 89 -51 104 -56 121 -42 30 24 15
47 -61 93 -94 56 -109 61 -129 41z"/>
<path d="M4252 3508 c-84 -51 -98 -72 -66 -99 14 -11 26 -8 80 21 36 19 79 46
96 61 26 21 29 28 20 45 -17 31 -41 26 -130 -28z"/>
<path d="M492 3057 c-6 -7 -9 -22 -6 -34 6 -22 29 -30 319 -104 139 -36 151
-38 163 -22 17 23 15 41 -5 52 -19 9 -433 121 -451 121 -5 0 -14 -6 -20 -13z"/>
<path d="M4445 3039 c-16 -5 -39 -11 -50 -13 -11 -3 -94 -25 -184 -49 -142
-39 -181 -55 -181 -77 0 -16 21 -32 41 -32 37 -1 442 111 451 125 5 7 7 21 6
32 -3 23 -36 29 -83 14z"/>
<path d="M28 2520 c-26 -7 -35 -34 -18 -55 18 -21 202 -21 220 0 15 18 4 55
-18 56 -76 4 -165 3 -184 -1z"/>
<path d="M385 2517 c-27 -9 -30 -19 -15 -48 10 -17 22 -19 115 -19 104 0 105
0 111 26 4 14 2 30 -4 36 -12 12 -173 16 -207 5z"/>
<path d="M4429 2518 c-21 -8 -25 -38 -7 -56 8 -8 47 -12 108 -12 61 0 100 4
108 12 16 16 15 47 -2 54 -22 8 -185 10 -207 2z"/>
<path d="M4807 2521 c-24 -7 -37 -33 -26 -52 8 -17 23 -19 114 -19 l105 0 0
35 c0 21 -5 35 -12 36 -43 3 -170 3 -181 0z"/>
<path d="M4030 2105 c-17 -20 -6 -43 25 -55 25 -9 267 -76 310 -85 11 -3 41
-11 66 -18 27 -8 54 -11 67 -6 24 9 29 41 10 56 -11 8 -249 75 -318 89 -14 3
-44 12 -68 20 -54 18 -76 18 -92 -1z"/>
<path d="M717 2041 c-138 -37 -212 -62 -218 -73 -17 -30 5 -55 43 -49 36 5
435 115 442 121 5 5 6 20 2 34 -9 36 -23 34 -269 -33z"/>
<path d="M4186 1527 c-32 -24 -14 -50 69 -99 90 -54 109 -58 126 -26 10 19 8
25 -15 43 -14 11 -57 37 -94 58 -59 31 -71 35 -86 24z"/>
<path d="M766 1495 c-32 -19 -62 -35 -66 -35 -4 0 -15 -9 -24 -19 -14 -15 -15
-24 -6 -40 16 -31 38 -26 126 27 65 39 79 51 79 72 0 39 -39 37 -109 -5z"/>
<path d="M1178 1232 c-92 -92 -168 -175 -168 -183 0 -9 12 -21 26 -28 25 -11
32 -5 188 151 90 90 166 170 168 178 7 21 -10 50 -30 50 -9 0 -92 -76 -184
-168z"/>
<path d="M3621 1362 c-6 -11 -6 -24 0 -35 6 -9 82 -89 170 -176 139 -138 163
-159 182 -152 47 18 32 40 -139 212 -93 93 -177 169 -186 169 -10 0 -22 -8
-27 -18z"/>
<path d="M473 1326 c-117 -64 -143 -92 -112 -123 14 -14 39 -5 129 47 76 44
87 60 62 89 -17 20 -17 20 -79 -13z"/>
<path d="M4492 1337 c-21 -24 11 -58 97 -103 66 -35 86 -42 98 -33 29 25 10
53 -71 102 -83 49 -106 56 -124 34z"/>
<path d="M2070 970 c-11 -11 -20 -26 -20 -33 0 -7 -25 -105 -55 -218 -55 -204
-55 -204 -34 -221 29 -25 46 -13 63 45 39 138 106 395 106 410 0 9 -9 21 -20
27 -15 8 -24 6 -40 -10z"/>
<path d="M2896 942 c-3 -9 17 -101 44 -202 71 -263 69 -257 84 -269 16 -14 42
-5 51 16 6 18 -101 432 -120 463 -10 17 -53 11 -59 -8z"/>
<path d="M1493 808 c-10 -18 -22 -40 -26 -48 -4 -8 -16 -28 -26 -45 -25 -38
-26 -72 -3 -84 26 -14 34 -5 87 83 51 87 55 119 14 124 -21 2 -30 -4 -46 -30z"/>
<path d="M3467 814 c-14 -15 -6 -40 41 -121 37 -65 52 -83 69 -83 12 0 27 8
32 18 15 28 -77 186 -111 190 -13 2 -27 0 -31 -4z"/>
<path d="M2493 578 c-13 -16 -14 -187 -2 -210 6 -10 18 -18 29 -18 11 0 23 8
28 18 10 21 9 192 -2 210 -9 16 -41 15 -53 0z"/>
<path d="M1329 513 c-19 -22 -70 -109 -86 -145 -9 -20 -9 -30 1 -43 27 -38 67
2 127 125 15 31 19 49 12 60 -15 22 -37 23 -54 3z"/>
<path d="M3649 494 c-11 -14 -7 -27 26 -92 58 -111 91 -137 115 -91 10 18 4
33 -36 102 -59 102 -76 116 -105 81z"/>
<path d="M2498 218 c-13 -11 -16 -32 -15 -113 l2 -100 33 -3 c17 -2 33 0 33 5
1 4 2 48 3 96 2 110 -16 146 -56 115z"/>
</g>
</svg>
