<?xml version="1.0" encoding="utf-8"?>
<!-- Generator: Adobe Illustrator 19.2.0, SVG Export Plug-In . SVG Version: 6.00 Build 0)  -->
<svg version="1.1" xmlns="http://www.w3.org/2000/svg" xmlns:xlink="http://www.w3.org/1999/xlink" x="0px" y="0px"
	 viewBox="0 0 392.7 274.6" style="enable-background:new 0 0 392.7 274.6;" xml:space="preserve">
<style type="text/css">
	.st0{display:none;}
	.st1{display:inline;}
	.st2{clip-path:url(#SVGID_2_);}
	.st3{clip-path:url(#SVGID_4_);fill:#FFFFFF;}
	.st4{clip-path:url(#SVGID_4_);}
	.st5{fill:#FFFFFF;}
	.st6{clip-path:url(#SVGID_6_);}
	.st7{clip-path:url(#SVGID_8_);fill:#FFFFFF;}
	.st8{clip-path:url(#SVGID_10_);fill:#FFFFFF;}
	.st9{clip-path:url(#SVGID_12_);fill:#FFFFFF;}
</style>
<g id="background" class="st0">
	<g class="st1">
		<defs>
			<rect id="SVGID_1_" width="392.7" height="274.6"/>
		</defs>
		<clipPath id="SVGID_2_">
			<use xlink:href="#SVGID_1_"  style="overflow:visible;"/>
		</clipPath>
		<rect class="st2" width="392.7" height="274.6"/>
	</g>
</g>
<g id="Layer_1">
	<g>
		<defs>
			<rect id="SVGID_3_" x="-224.6" y="-160.3" width="841.9" height="595.3"/>
		</defs>
		<clipPath id="SVGID_4_">
			<use xlink:href="#SVGID_3_"  style="overflow:visible;"/>
		</clipPath>
		<path class="st3" d="M264.5,99.9c0,0-2.2-2.2-5.6-5c-3-2.5-7.1-5.4-11.6-7.8c2.7-4.3,4.7-8.9,6.1-12.6c1.6-4.1,2.4-7.1,2.4-7.1
			l0.5-1.7l-1.7-0.5c0,0-2.4-0.6-6-1.3c-3.6-0.6-8.5-1.3-13.6-1.3c-0.6,0-1.1,0-1.7,0.1c0-0.6,0.1-1.1,0.1-1.7
			c0-5.1-0.6-10-1.3-13.6c-0.6-3.6-1.3-6-1.3-6l-0.5-1.7l-1.7,0.5c0,0-3,0.8-7.1,2.4c-3.7,1.4-8.2,3.5-12.6,6.1
			c-2.4-4.5-5.3-8.5-7.8-11.6c-2.8-3.4-4.9-5.6-5-5.6l-1.3-1.3l-1.3,1.3c0,0-2.2,2.2-5,5.6c-2.5,3-5.4,7.1-7.8,11.6
			c-4.3-2.7-8.9-4.7-12.6-6.1c-4.1-1.6-7.1-2.4-7.1-2.4l-1.7-0.5l-0.5,1.7c0,0-0.6,2.4-1.3,6c-0.6,3.6-1.3,8.5-1.3,13.6
			c0,0.6,0,1.1,0.1,1.7c-0.6,0-1.1-0.1-1.7-0.1c-5.1,0-10,0.6-13.6,1.3c-3.6,0.6-6,1.3-6,1.3l-1.7,0.5l0.5,1.7c0,0,0.8,3,2.4,7.1
			c1.4,3.7,3.5,8.2,6.1,12.6c-4.5,2.4-8.5,5.3-11.6,7.8c-3.4,2.8-5.6,4.9-5.6,5l-1.3,1.3l1.3,1.3c0,0,2.2,2.2,5.6,5
			c3,2.5,7.1,5.4,11.6,7.8c-2.7,4.3-4.7,8.9-6.1,12.6c-1.6,4.1-2.4,7.1-2.4,7.1l-0.5,1.7l1.7,0.5c0,0,2.4,0.6,6,1.3
			c3.6,0.6,8.5,1.3,13.6,1.3c0.6,0,1.1,0,1.7-0.1c0,0.6-0.1,1.2-0.1,1.7c0,5.1,0.6,10,1.3,13.6c0.6,3.6,1.3,6,1.3,6l0.5,1.7l1.7-0.5
			c0,0,3-0.8,7.1-2.4c3.7-1.4,8.2-3.5,12.6-6.1c2.4,4.5,5.3,8.5,7.8,11.6c2.8,3.4,4.9,5.6,5,5.6l1.3,1.3l1.3-1.3c0,0,2.2-2.2,5-5.6
			c2.5-3,5.4-7.1,7.8-11.6c4.3,2.7,8.9,4.7,12.6,6.1c4.1,1.6,7.1,2.4,7.1,2.4l1.7,0.5l0.5-1.7c0,0,0.6-2.4,1.3-6
			c0.6-3.6,1.3-8.5,1.3-13.6c0-0.6,0-1.1-0.1-1.7c0.6,0,1.2,0.1,1.7,0.1c5.1,0,10-0.6,13.6-1.3c3.6-0.6,6-1.3,6-1.3l1.7-0.5
			l-0.5-1.7c0,0-0.8-3-2.4-7.1c-1.4-3.7-3.5-8.2-6.1-12.6c4.5-2.4,8.5-5.3,11.6-7.8c3.4-2.8,5.6-4.9,5.6-5l1.3-1.3L264.5,99.9z"/>
		<path class="st4" d="M246.4,101.1c0,0-6.4-6.4-14-10.1c4.7-7,7-15.7,7-15.7s-8.8-2.3-17.1-1.8c0.6-8.4-1.8-17.1-1.8-17.1
			s-8.7,2.4-15.7,7c-3.7-7.5-10.1-14-10.1-14s-6.4,6.4-10.1,14c-7-4.7-15.7-7-15.7-7s-2.3,8.8-1.8,17.1c-8.4-0.6-17.1,1.8-17.1,1.8
			s2.4,8.8,7,15.7c-7.5,3.7-14,10.1-14,10.1s6.4,6.4,14,10.1c-4.7,7-7,15.7-7,15.7s8.8,2.3,17.1,1.8c-0.6,8.4,1.8,17.1,1.8,17.1
			s8.8-2.4,15.7-7c3.7,7.5,10.1,14,10.1,14s6.4-6.4,10.1-14c7,4.7,15.7,7,15.7,7s2.3-8.8,1.8-17.1c8.4,0.6,17.1-1.8,17.1-1.8
			s-2.4-8.7-7-15.7C240,107.5,246.4,101.1,246.4,101.1"/>
		<path class="st3" d="M246.4,101.1l0.2-0.2c0,0-6.4-6.4-14-10.1l-0.1,0.2l0.2,0.1c4.7-7,7.1-15.8,7.1-15.8l0.1-0.2l-0.2-0.1
			c0,0-7-1.9-14.5-1.9c-0.9,0-1.8,0-2.7,0.1l0,0.3l0.3,0c0.1-0.9,0.1-1.8,0.1-2.7c0-7.5-1.9-14.5-1.9-14.5l-0.1-0.2l-0.3,0.1
			c0,0-8.8,2.4-15.8,7.1l0.1,0.2l0.2-0.1c-3.7-7.6-10.1-14-10.2-14l-0.2-0.2l-0.2,0.2c0,0-6.4,6.4-10.2,14l0.2,0.1l0.1-0.2
			c-7-4.7-15.8-7.1-15.8-7.1l-0.3-0.1l-0.1,0.2c0,0-1.9,7-1.9,14.5c0,0.9,0,1.8,0.1,2.7l0.3,0l0-0.3c-0.9-0.1-1.8-0.1-2.7-0.1
			c-7.5,0-14.5,1.9-14.5,1.9l-0.3,0.1l0.1,0.2c0,0,2.4,8.8,7.1,15.8L157,91l-0.1-0.2c-7.6,3.7-14,10.1-14,10.2l-0.2,0.2l0.2,0.2
			c0,0,6.4,6.4,14,10.1l0.1-0.2l-0.2-0.1c-4.7,7-7.1,15.8-7.1,15.8l-0.1,0.3l0.3,0.1c0,0,7,1.9,14.5,1.9c0.9,0,1.8,0,2.7-0.1l0-0.3
			l-0.3,0c-0.1,0.9-0.1,1.8-0.1,2.7c0,7.5,1.9,14.5,1.9,14.5l0.1,0.2l0.3-0.1c0,0,8.8-2.4,15.8-7.1l-0.1-0.2l-0.2,0.1
			c3.7,7.6,10.1,14,10.2,14l0.2,0.2l0.2-0.2c0,0,6.4-6.4,10.2-14l-0.2-0.1l-0.1,0.2c7,4.7,15.8,7.1,15.8,7.1l0.3,0.1l0.1-0.2
			c0,0,1.9-7,1.9-14.5c0-0.9,0-1.8-0.1-2.7l-0.3,0l0,0.3c0.9,0.1,1.8,0.1,2.7,0.1c7.5,0,14.5-1.9,14.5-1.9l0.3-0.1l-0.1-0.3
			c0,0-2.4-8.8-7.1-15.8l-0.2,0.1l0.1,0.2c7.6-3.7,14-10.1,14-10.1l0.2-0.2l-0.2-0.2L246.4,101.1l-0.2-0.2c0,0-0.1,0.1-0.3,0.3
			c-1.3,1.3-7,6.6-13.6,9.8l-0.3,0.1l0.2,0.2c2.3,3.5,4.1,7.4,5.2,10.4c0.6,1.5,1,2.8,1.3,3.8c0.1,0.5,0.3,0.8,0.3,1.1
			c0.1,0.3,0.1,0.4,0.1,0.4l0.3-0.1l-0.1-0.2c0,0-0.1,0-0.3,0.1c-1.4,0.4-7.6,1.8-14.1,1.8c-0.9,0-1.8,0-2.7-0.1l-0.3,0l0,0.3
			c0.1,0.9,0.1,1.8,0.1,2.7c0,3.7-0.5,7.3-0.9,10c-0.2,1.3-0.5,2.4-0.6,3.2c-0.1,0.4-0.2,0.7-0.2,0.9c-0.1,0.2-0.1,0.3-0.1,0.3
			l0.2,0.1l0.1-0.2c0,0-0.1,0-0.4-0.1c-1.8-0.5-9.2-2.8-15.3-6.9l-0.2-0.2l-0.1,0.3c-1.8,3.7-4.4,7.2-6.4,9.8c-1,1.3-1.9,2.3-2.6,3
			c-0.3,0.4-0.6,0.6-0.8,0.8c-0.2,0.2-0.3,0.3-0.3,0.3l0.2,0.2l0.2-0.2c0,0-0.1-0.1-0.3-0.3c-1.3-1.3-6.6-7-9.8-13.6l-0.1-0.3
			l-0.2,0.2c-3.5,2.3-7.4,4.1-10.4,5.2c-1.5,0.6-2.8,1-3.8,1.3c-0.5,0.1-0.8,0.3-1.1,0.3c-0.3,0.1-0.4,0.1-0.4,0.1l0.1,0.2l0.2-0.1
			c0,0,0-0.1-0.1-0.3c-0.4-1.4-1.8-7.6-1.8-14.1c0-0.9,0-1.8,0.1-2.7l0-0.3l-0.3,0c-0.9,0.1-1.8,0.1-2.7,0.1c-3.7,0-7.3-0.5-10-0.9
			c-1.3-0.2-2.4-0.5-3.2-0.6c-0.4-0.1-0.7-0.2-0.9-0.2c-0.2-0.1-0.3-0.1-0.3-0.1L150,127l0.2,0.1c0,0,0-0.1,0.1-0.4
			c0.5-1.8,2.8-9.2,6.9-15.3l0.2-0.2l-0.3-0.1c-3.7-1.8-7.2-4.4-9.8-6.4c-1.3-1-2.3-1.9-3-2.6c-0.4-0.3-0.6-0.6-0.8-0.8
			c-0.2-0.2-0.3-0.3-0.3-0.3l-0.2,0.2l0.2,0.2c0,0,0.1-0.1,0.3-0.3c1.3-1.3,7-6.6,13.6-9.8l0.3-0.1l-0.2-0.2
			c-2.3-3.5-4.1-7.4-5.2-10.4c-0.6-1.5-1-2.8-1.3-3.8c-0.1-0.5-0.3-0.8-0.3-1.1c-0.1-0.3-0.1-0.4-0.1-0.4l-0.2,0.1l0.1,0.2
			c0,0,0.1,0,0.3-0.1c1.4-0.4,7.6-1.8,14.1-1.8c0.9,0,1.8,0,2.7,0.1l0.3,0l0-0.3c-0.1-0.9-0.1-1.8-0.1-2.7c0-3.7,0.5-7.3,0.9-10
			c0.2-1.3,0.5-2.4,0.6-3.2c0.1-0.4,0.2-0.7,0.2-0.9c0.1-0.2,0.1-0.3,0.1-0.3l-0.2-0.1l-0.1,0.2c0,0,0.1,0,0.4,0.1
			c1.8,0.5,9.2,2.8,15.3,6.9l0.2,0.2l0.1-0.3c1.8-3.7,4.4-7.2,6.4-9.8c1-1.3,1.9-2.3,2.6-3c0.3-0.4,0.6-0.6,0.8-0.8
			c0.2-0.2,0.3-0.3,0.3-0.3l-0.2-0.2l-0.2,0.2c0,0,0.1,0.1,0.3,0.3c1.3,1.3,6.6,7,9.8,13.6l0.1,0.3l0.2-0.2
			c3.5-2.3,7.4-4.1,10.4-5.2c1.5-0.6,2.8-1,3.8-1.3c0.5-0.1,0.8-0.3,1.1-0.3c0.3-0.1,0.4-0.1,0.4-0.1l-0.1-0.2l-0.2,0.1
			c0,0,0,0.1,0.1,0.3c0.4,1.4,1.8,7.6,1.8,14.1c0,0.9,0,1.8-0.1,2.7l0,0.3l0.3,0c0.9-0.1,1.8-0.1,2.7-0.1c3.7,0,7.3,0.5,10,0.9
			c1.3,0.2,2.4,0.5,3.2,0.6c0.4,0.1,0.7,0.2,0.9,0.2c0.2,0.1,0.3,0.1,0.3,0.1l0.1-0.2l-0.3-0.1c0,0,0,0.1-0.1,0.4
			c-0.5,1.8-2.8,9.2-6.9,15.3l-0.2,0.2l0.3,0.1c3.7,1.8,7.2,4.4,9.8,6.4c1.3,1,2.3,1.9,3,2.6c0.4,0.3,0.6,0.6,0.8,0.8
			c0.2,0.2,0.3,0.3,0.3,0.3L246.4,101.1l-0.2-0.2L246.4,101.1z"/>
	</g>
	<polygon class="st5" points="194.7,126.5 187.3,131.6 177,121.9 177,103 163.6,90.6 182.7,70.7 194.7,82.1 206.8,70.7 225.8,90.6 
		212.5,103 212.5,121.9 202.1,131.6 	"/>
	<polygon points="194.7,126.5 193.9,125.2 187.5,129.6 178.5,121.2 178.5,102.4 165.8,90.5 182.7,72.9 194.7,84.2 206.7,72.9 
		223.6,90.5 211,102.4 211,121.2 202,129.6 194.7,124.6 193.9,125.2 194.7,126.5 193.9,127.8 202.3,133.6 214,122.5 214,103.7 
		228,90.6 206.8,68.5 194.7,80 182.6,68.5 161.4,90.6 175.4,103.7 175.4,122.5 187.2,133.6 195.6,127.8 194.7,126.5 193.9,127.8 	
		"/>
	<g>
		<defs>
			<rect id="SVGID_5_" x="-224.6" y="-160.3" width="841.9" height="595.3"/>
		</defs>
		<clipPath id="SVGID_6_">
			<use xlink:href="#SVGID_5_"  style="overflow:visible;"/>
		</clipPath>
		<path class="st6" d="M196.3,125.3v-10.2c0-0.9-0.7-1.5-1.5-1.5c-0.9,0-1.5,0.7-1.5,1.5v10.2c0,0.9,0.7,1.5,1.5,1.5
			C195.6,126.8,196.3,126.1,196.3,125.3"/>
		<path class="st6" d="M186.8,114.9h15.8c0.9,0,1.5-0.7,1.5-1.5c0-0.9-0.7-1.5-1.5-1.5h-15.8c-0.9,0-1.5,0.7-1.5,1.5
			C185.3,114.2,186,114.9,186.8,114.9"/>
		<path class="st6" d="M184.7,96.6h3.3v15.6c0,0.9,0.7,1.5,1.5,1.5c0.9,0,1.5-0.7,1.5-1.5V93.5h-6.4c-0.9,0-1.5,0.7-1.5,1.5
			C183.1,95.9,183.8,96.6,184.7,96.6"/>
		<path class="st6" d="M204.8,93.5h-6.4v18.7c0,0.9,0.7,1.5,1.5,1.5c0.9,0,1.5-0.7,1.5-1.5V96.6h3.3c0.9,0,1.5-0.7,1.5-1.5
			C206.3,94.2,205.6,93.5,204.8,93.5"/>
	</g>
	<polyline points="202.5,113.1 194.7,120.9 187,113.1 	"/>
	<polygon points="202.3,113 194.7,120.5 187.2,113 186.8,113.3 194.7,121.2 202.6,113.3 	"/>
	<g>
		<defs>
			<rect id="SVGID_7_" x="-224.6" y="-160.3" width="841.9" height="595.3"/>
		</defs>
		<clipPath id="SVGID_8_">
			<use xlink:href="#SVGID_7_"  style="overflow:visible;"/>
		</clipPath>
		<path class="st7" d="M135.4,44.2l12.5,12.5c0.6,0.6,1.6,0.6,2.2,0c0.6-0.6,0.6-1.6,0-2.2L137.5,42c-0.6-0.6-1.6-0.6-2.2,0
			C134.8,42.6,134.8,43.6,135.4,44.2"/>
		<path class="st7" d="M239.8,148.6l12.5,12.5c0.6,0.6,1.6,0.6,2.2,0c0.6-0.6,0.6-1.6,0-2.2L242,146.4c-0.6-0.6-1.6-0.6-2.2,0
			C239.2,147,239.2,148,239.8,148.6"/>
		<path class="st7" d="M114.2,80.9l17.1,4.6c0.8,0.2,1.7-0.3,1.9-1.1c0.2-0.8-0.3-1.7-1.1-1.9L115,77.9c-0.8-0.2-1.7,0.3-1.9,1.1
			C112.9,79.8,113.4,80.7,114.2,80.9"/>
		<path class="st7" d="M256.9,119.1l17.1,4.6c0.8,0.2,1.7-0.3,1.9-1.1c0.2-0.8-0.3-1.7-1.1-1.9l-17.1-4.6c-0.8-0.2-1.7,0.3-1.9,1.1
			C255.6,118.1,256.1,118.9,256.9,119.1"/>
		<path class="st7" d="M115.4,124.5l17.1-4.6c0.8-0.2,1.3-1.1,1.1-1.9c-0.2-0.8-1.1-1.3-1.9-1.1l-17.1,4.6c-0.8,0.2-1.3,1.1-1.1,1.9
			C113.8,124.2,114.6,124.7,115.4,124.5"/>
		<path class="st7" d="M258.1,86.3l17.1-4.6c0.8-0.2,1.3-1.1,1.1-1.9c-0.2-0.8-1.1-1.3-1.9-1.1l-17.1,4.6c-0.8,0.2-1.3,1.1-1.1,1.9
			C256.4,86,257.3,86.5,258.1,86.3"/>
		<path class="st7" d="M137.1,160.4l12.5-12.5c0.6-0.6,0.6-1.6,0-2.2c-0.6-0.6-1.6-0.6-2.2,0l-12.5,12.5c-0.6,0.6-0.6,1.6,0,2.2
			C135.5,161,136.5,161,137.1,160.4"/>
		<path class="st7" d="M241.6,56l12.5-12.5c0.6-0.6,0.6-1.6,0-2.2c-0.6-0.6-1.6-0.6-2.2,0l-12.5,12.5c-0.6,0.6-0.6,1.6,0,2.2
			C240,56.6,240.9,56.6,241.6,56"/>
		<path class="st7" d="M175,181l4.6-17.1c0.2-0.8-0.3-1.7-1.1-1.9c-0.8-0.2-1.7,0.3-1.9,1.1l-4.6,17.1c-0.2,0.8,0.3,1.7,1.1,1.9
			C174,182.3,174.8,181.8,175,181"/>
		<path class="st7" d="M213.3,38.3l4.6-17.1c0.2-0.8-0.3-1.7-1.1-1.9c-0.8-0.2-1.7,0.3-1.9,1.1l-4.6,17.1c-0.2,0.8,0.3,1.7,1.1,1.9
			C212.2,39.6,213,39.2,213.3,38.3"/>
		<path class="st7" d="M217.9,181.1l-4.6-17.1c-0.2-0.8-1.1-1.3-1.9-1.1c-0.8,0.2-1.3,1.1-1.1,1.9l4.6,17.1c0.2,0.8,1.1,1.3,1.9,1.1
			C217.6,182.8,218.1,181.9,217.9,181.1"/>
		<path class="st7" d="M179.6,38.4L175,21.3c-0.2-0.8-1.1-1.3-1.9-1.1c-0.8,0.2-1.3,1.1-1.1,1.9l4.6,17.1c0.2,0.8,1.1,1.3,1.9,1.1
			C179.4,40.1,179.8,39.2,179.6,38.4"/>
		<path class="st7" d="M108.5,53.7l5.8,3.4c0.7,0.4,1.7,0.2,2.1-0.6c0.4-0.7,0.2-1.7-0.6-2.1L110,51c-0.7-0.4-1.7-0.2-2.1,0.6
			C107.5,52.3,107.7,53.3,108.5,53.7"/>
		<path class="st7" d="M121.1,61l5.8,3.4c0.7,0.4,1.7,0.2,2.1-0.6c0.4-0.7,0.2-1.7-0.6-2.1l-5.8-3.4c-0.7-0.4-1.7-0.2-2.1,0.6
			C120.2,59.7,120.4,60.6,121.1,61"/>
		<path class="st7" d="M262.5,142.6l5.8,3.4c0.7,0.4,1.7,0.2,2.1-0.6c0.4-0.7,0.2-1.7-0.6-2.1L264,140c-0.7-0.4-1.7-0.2-2.1,0.6
			C261.5,141.3,261.7,142.2,262.5,142.6"/>
		<path class="st7" d="M275.2,150l5.8,3.4c0.7,0.4,1.7,0.2,2.1-0.6c0.4-0.7,0.2-1.7-0.6-2.1l-5.8-3.4c-0.7-0.4-1.7-0.2-2.1,0.6
			C274.2,148.6,274.4,149.5,275.2,150"/>
		<path class="st7" d="M95.1,103h6.7c0.9,0,1.5-0.7,1.5-1.5c0-0.9-0.7-1.5-1.5-1.5h-6.7c-0.9,0-1.5,0.7-1.5,1.5
			C93.6,102.3,94.3,103,95.1,103"/>
		<path class="st7" d="M109.8,103h6.7c0.9,0,1.5-0.7,1.5-1.5c0-0.9-0.7-1.5-1.5-1.5h-6.7c-0.9,0-1.5,0.7-1.5,1.5
			C108.2,102.3,108.9,103,109.8,103"/>
		<path class="st7" d="M273,103h6.7c0.9,0,1.5-0.7,1.5-1.5c0-0.9-0.7-1.5-1.5-1.5H273c-0.9,0-1.5,0.7-1.5,1.5
			C271.4,102.3,272.1,103,273,103"/>
		<path class="st7" d="M287.6,103h6.7c0.9,0,1.5-0.7,1.5-1.5c0-0.9-0.7-1.5-1.5-1.5h-6.7c-0.9,0-1.5,0.7-1.5,1.5
			C286.1,102.3,286.8,103,287.6,103"/>
		<path class="st7" d="M110,153.3l5.8-3.3c0.7-0.4,1-1.4,0.6-2.1c-0.4-0.7-1.4-1-2.1-0.6l-5.8,3.4c-0.7,0.4-1,1.4-0.6,2.1
			C108.3,153.5,109.3,153.7,110,153.3"/>
		<path class="st7" d="M122.7,146l5.8-3.4c0.7-0.4,1-1.4,0.6-2.1c-0.4-0.7-1.4-1-2.1-0.6l-5.8,3.4c-0.7,0.4-1,1.4-0.6,2.1
			C121,146.2,122,146.4,122.7,146"/>
		<path class="st7" d="M264,64.4l5.8-3.4c0.7-0.4,1-1.4,0.6-2.1c-0.4-0.7-1.4-1-2.1-0.6l-5.8,3.4c-0.7,0.4-1,1.4-0.6,2.1
			C262.3,64.6,263.3,64.8,264,64.4"/>
		<path class="st7" d="M276.7,57.1l5.8-3.4c0.7-0.4,1-1.4,0.6-2.1c-0.4-0.7-1.4-1-2.1-0.6l-5.8,3.4c-0.7,0.4-1,1.4-0.6,2.1
			C275,57.2,276,57.5,276.7,57.1"/>
		<path class="st7" d="M146.3,188.4l3.4-5.8c0.4-0.7,0.2-1.7-0.6-2.1c-0.7-0.4-1.7-0.2-2.1,0.6l-3.4,5.8c-0.4,0.7-0.2,1.7,0.6,2.1
			C144.9,189.4,145.8,189.2,146.3,188.4"/>
		<path class="st7" d="M153.6,175.7l3.4-5.8c0.4-0.7,0.2-1.7-0.6-2.1c-0.7-0.4-1.7-0.2-2.1,0.6l-3.4,5.8c-0.4,0.7-0.2,1.7,0.6,2.1
			C152.2,176.7,153.2,176.5,153.6,175.7"/>
		<path class="st7" d="M235.2,34.4l3.4-5.8c0.4-0.7,0.2-1.7-0.6-2.1c-0.7-0.4-1.7-0.2-2.1,0.6l-3.4,5.8c-0.4,0.7-0.2,1.7,0.6,2.1
			C233.8,35.4,234.8,35.2,235.2,34.4"/>
		<path class="st7" d="M242.5,21.7l3.4-5.8c0.4-0.7,0.2-1.7-0.6-2.1c-0.7-0.4-1.7-0.2-2.1,0.6l-3.4,5.8c-0.4,0.7-0.2,1.7,0.6,2.1
			C241.1,22.7,242.1,22.5,242.5,21.7"/>
		<path class="st7" d="M196.8,200.7l0-6.7c0-0.9-0.7-1.5-1.5-1.5c-0.9,0-1.5,0.7-1.5,1.5l0,6.7c0,0.9,0.7,1.5,1.5,1.5
			C196.1,202.3,196.8,201.6,196.8,200.7"/>
		<path class="st7" d="M196.8,186.1v-6.7c0-0.9-0.7-1.5-1.5-1.5c-0.9,0-1.5,0.7-1.5,1.5l0,6.7c0,0.9,0.7,1.5,1.5,1.5
			C196.1,187.6,196.8,186.9,196.8,186.1"/>
		<path class="st7" d="M196.8,22.9v-6.7c0-0.9-0.7-1.5-1.5-1.5c-0.9,0-1.5,0.7-1.5,1.5v6.7c0,0.9,0.7,1.5,1.5,1.5
			C196.1,24.5,196.8,23.8,196.8,22.9"/>
		<path class="st7" d="M196.8,8.3V1.5c0-0.9-0.7-1.5-1.5-1.5c-0.9,0-1.5,0.7-1.5,1.5l0,6.7c0,0.9,0.7,1.5,1.5,1.5
			C196.1,9.8,196.8,9.1,196.8,8.3"/>
		<path class="st7" d="M246.6,187.6l-3.4-5.8c-0.4-0.7-1.4-1-2.1-0.6c-0.7,0.4-1,1.4-0.6,2.1l3.4,5.8c0.4,0.7,1.4,1,2.1,0.6
			C246.8,189.3,247,188.4,246.6,187.6"/>
		<path class="st7" d="M239.3,175l-3.4-5.8c-0.4-0.7-1.4-1-2.1-0.6c-0.7,0.4-1,1.4-0.6,2.1l3.4,5.8c0.4,0.7,1.4,1,2.1,0.6
			C239.5,176.6,239.7,175.7,239.3,175"/>
		<path class="st7" d="M157.7,33.6l-3.4-5.8c-0.4-0.7-1.4-1-2.1-0.6c-0.7,0.4-1,1.4-0.6,2.1l3.4,5.8c0.4,0.7,1.4,1,2.1,0.6
			C157.9,35.3,158.1,34.4,157.7,33.6"/>
		<path class="st7" d="M150.4,21l-3.4-5.8c-0.4-0.7-1.4-1-2.1-0.6c-0.7,0.4-1,1.4-0.6,2.1l3.4,5.8c0.4,0.7,1.4,1,2.1,0.6
			C150.6,22.6,150.8,21.7,150.4,21"/>
	</g>
	<polygon class="st5" points="0,229.8 33.5,229.8 33.5,238.6 9.7,238.6 9.7,248 30.7,248 30.7,256.8 9.7,256.8 9.7,273.9 0,273.9 	
		"/>
	<rect x="44.9" y="229.8" class="st5" width="9.7" height="44.1"/>
	<g>
		<defs>
			<rect id="SVGID_9_" x="-224.6" y="-160.3" width="841.9" height="595.3"/>
		</defs>
		<clipPath id="SVGID_10_">
			<use xlink:href="#SVGID_9_"  style="overflow:visible;"/>
		</clipPath>
		<path class="st8" d="M86.6,251.2c4.7,0,7.4-2.5,7.4-6.2v-0.1c0-4.2-2.9-6.3-7.6-6.3h-9.6v12.6H86.6z M67.1,229.8h20.1
			c5.6,0,9.9,1.6,12.8,4.5c2.5,2.5,3.8,5.9,3.8,10.1v0.1c0,7.1-3.8,11.6-9.4,13.7l10.8,15.7H93.9l-9.4-14.1h-0.1h-7.5v14.1h-9.7
			V229.8z"/>
	</g>
	<polygon class="st5" points="114.2,229.8 147.4,229.8 147.4,238.4 123.8,238.4 123.8,247.4 144.6,247.4 144.6,256 123.8,256 
		123.8,265.2 147.7,265.2 147.7,273.9 114.2,273.9 	"/>
	<polygon class="st5" points="236.1,229.8 245.8,229.8 245.8,265.1 267.8,265.1 267.8,273.9 236.1,273.9 	"/>
	<rect x="277.8" y="229.8" class="st5" width="9.7" height="44.1"/>
	<g>
		<defs>
			<rect id="SVGID_11_" x="-224.6" y="-160.3" width="841.9" height="595.3"/>
		</defs>
		<clipPath id="SVGID_12_">
			<use xlink:href="#SVGID_11_"  style="overflow:visible;"/>
		</clipPath>
		<path class="st9" d="M334.1,252v-0.1c0-7.5-5.5-13.8-13.3-13.8c-7.8,0-13.2,6.2-13.2,13.7v0.1c0,7.6,5.5,13.9,13.3,13.9
			C328.6,265.7,334.1,259.5,334.1,252 M297.4,252v-0.1c0-12.5,9.9-22.8,23.5-22.8c13.6,0,23.3,10.1,23.3,22.7v0.1
			c0,12.5-9.9,22.8-23.5,22.8C307.1,274.6,297.4,264.5,297.4,252"/>
	</g>
	<polygon class="st5" points="353.6,229.8 362.5,229.8 383.1,256.9 383.1,229.8 392.7,229.8 392.7,273.9 384.5,273.9 363.1,245.9 
		363.1,273.9 353.6,273.9 	"/>
	<path class="st5" d="M176.6,253l-2.1-5.1l-2.1,5.1H176.6z M172.9,243.7h3.2l6.8,15.9h-3.6l-1.4-3.5h-6.7l-1.4,3.5h-3.6L172.9,243.7
		z"/>
	<polygon class="st5" points="186.5,243.7 189.7,243.7 197.1,253.5 197.1,243.7 200.5,243.7 200.5,259.6 197.6,259.6 189.9,249.5 
		189.9,259.6 186.5,259.6 	"/>
	<g>
		<path class="st5" d="M211.6,256.4c2.8,0,4.8-1.9,4.8-4.7v0c0-2.8-1.9-4.8-4.8-4.8h-2.7v9.5H211.6z M205.5,243.7h6.2
			c5,0,8.4,3.4,8.4,7.9v0c0,4.5-3.4,7.9-8.4,7.9h-6.2V243.7z"/>
		<path class="st5" d="M167,237.4h52.3c0.7,0,1.2-0.6,1.2-1.2c0-0.7-0.5-1.2-1.2-1.2H167c-0.7,0-1.2,0.6-1.2,1.2
			C165.8,236.9,166.3,237.4,167,237.4"/>
		<path class="st5" d="M167,268.3h52.3c0.7,0,1.2-0.6,1.2-1.2c0-0.7-0.5-1.2-1.2-1.2H167c-0.7,0-1.2,0.5-1.2,1.2
			C165.8,267.8,166.3,268.3,167,268.3"/>
	</g>
</g>
</svg>
