<?xml version="1.0" encoding="utf-8"?>
<!-- Generator: Adobe Illustrator 19.2.0, SVG Export Plug-In . SVG Version: 6.00 Build 0)  -->
<svg version="1.1" xmlns="http://www.w3.org/2000/svg" xmlns:xlink="http://www.w3.org/1999/xlink" x="0px" y="0px"
	 viewBox="0 0 202.3 202.3" style="enable-background:new 0 0 202.3 202.3;" xml:space="preserve">
<style type="text/css">
	.st0{display:none;}
	.st1{display:inline;}
	.st2{fill:#FFFFFF;}
</style>
<g id="Layer_2" class="st0">
	<rect x="-2.8" class="st1" width="205.1" height="202.3"/>
</g>
<g id="Layer_1">
	<path class="st2" d="M170.9,99.9c0,0-2.2-2.2-5.6-5c-3-2.5-7.1-5.4-11.6-7.8c2.7-4.3,4.7-8.9,6.1-12.6c1.6-4.1,2.4-7.1,2.4-7.1
		l0.5-1.7l-1.7-0.5c0,0-2.4-0.6-6-1.3c-3.6-0.6-8.5-1.3-13.6-1.3c-0.6,0-1.1,0-1.7,0.1c0-0.6,0.1-1.1,0.1-1.7c0-5.1-0.6-10-1.3-13.6
		c-0.6-3.6-1.3-6-1.3-6l-0.5-1.7l-1.7,0.5c0,0-3,0.8-7.1,2.4c-3.7,1.4-8.2,3.5-12.6,6.1c-2.4-4.5-5.3-8.5-7.8-11.6
		c-2.8-3.4-4.9-5.6-5-5.6l-1.3-1.3l-1.3,1.3c0,0-2.2,2.2-5,5.6c-2.5,3-5.4,7.1-7.8,11.6c-4.3-2.7-8.9-4.7-12.6-6.1
		c-4.1-1.6-7.1-2.4-7.1-2.4l-1.7-0.5l-0.5,1.7c0,0-0.6,2.4-1.3,6c-0.6,3.6-1.3,8.5-1.3,13.6c0,0.6,0,1.1,0.1,1.7
		c-0.6,0-1.1-0.1-1.7-0.1c-5.1,0-10,0.6-13.6,1.3c-3.6,0.6-6,1.3-6,1.3l-1.7,0.5l0.5,1.7c0,0,0.8,3,2.4,7.1
		c1.4,3.7,3.5,8.2,6.1,12.6c-4.5,2.4-8.5,5.3-11.6,7.8c-3.4,2.8-5.6,4.9-5.6,5l-1.3,1.3l1.3,1.3c0,0,2.2,2.2,5.6,5
		c3,2.5,7.1,5.4,11.6,7.8c-2.7,4.3-4.7,8.9-6.1,12.6c-1.6,4.1-2.4,7.1-2.4,7.1l-0.5,1.7l1.7,0.5c0,0,2.4,0.6,6,1.3
		c3.6,0.6,8.5,1.3,13.6,1.3c0.6,0,1.1,0,1.7-0.1c0,0.6-0.1,1.2-0.1,1.7c0,5.1,0.6,10,1.3,13.6c0.6,3.6,1.3,6,1.3,6l0.5,1.7l1.7-0.5
		c0,0,3-0.8,7.1-2.4c3.7-1.4,8.2-3.5,12.6-6.1c2.4,4.5,5.3,8.5,7.8,11.6c2.8,3.4,4.9,5.6,5,5.6l1.3,1.3l1.3-1.3c0,0,2.2-2.2,5-5.6
		c2.5-3,5.4-7.1,7.8-11.6c4.3,2.7,8.9,4.7,12.6,6.1c4.1,1.6,7.1,2.4,7.1,2.4l1.7,0.5l0.5-1.7c0,0,0.6-2.4,1.3-6
		c0.6-3.6,1.3-8.5,1.3-13.6c0-0.6,0-1.1-0.1-1.7c0.6,0,1.2,0.1,1.7,0.1c5.1,0,10-0.6,13.6-1.3c3.6-0.6,6-1.3,6-1.3l1.7-0.5l-0.5-1.7
		c0,0-0.8-3-2.4-7.1c-1.4-3.7-3.5-8.2-6.1-12.6c4.5-2.4,8.5-5.3,11.6-7.8c3.4-2.8,5.6-4.9,5.6-5l1.3-1.3L170.9,99.9z"/>
	<path d="M152.8,101.1c0,0-6.4-6.4-14-10.1c4.7-7,7-15.7,7-15.7s-8.8-2.3-17.1-1.8c0.6-8.4-1.8-17.1-1.8-17.1s-8.7,2.4-15.7,7
		c-3.7-7.5-10.1-14-10.1-14s-6.4,6.4-10.1,14c-7-4.7-15.7-7-15.7-7s-2.3,8.8-1.8,17.1c-8.4-0.6-17.1,1.8-17.1,1.8s2.4,8.8,7,15.7
		c-7.5,3.7-14,10.1-14,10.1s6.4,6.4,14,10.1c-4.7,7-7,15.7-7,15.7s8.8,2.3,17.1,1.8c-0.6,8.4,1.8,17.1,1.8,17.1s8.8-2.4,15.7-7
		c3.7,7.5,10.1,14,10.1,14s6.4-6.4,10.1-14c7,4.7,15.7,7,15.7,7s2.3-8.8,1.8-17.1c8.4,0.6,17.1-1.8,17.1-1.8s-2.4-8.7-7-15.7
		C146.4,107.5,152.8,101.1,152.8,101.1"/>
	<path class="st2" d="M152.8,101.1l0.2-0.2c0,0-6.4-6.4-14-10.1l-0.1,0.2l0.2,0.1c4.7-7,7.1-15.8,7.1-15.8l0.1-0.2l-0.2-0.1
		c0,0-7-1.9-14.5-1.9c-0.9,0-1.8,0-2.7,0.1l0,0.3l0.3,0c0.1-0.9,0.1-1.8,0.1-2.7c0-7.5-1.9-14.5-1.9-14.5l-0.1-0.2l-0.3,0.1
		c0,0-8.8,2.4-15.8,7.1l0.1,0.2l0.2-0.1c-3.7-7.6-10.1-14-10.2-14l-0.2-0.2l-0.2,0.2c0,0-6.4,6.4-10.2,14l0.2,0.1l0.1-0.2
		c-7-4.7-15.8-7.1-15.8-7.1l-0.3-0.1l-0.1,0.2c0,0-1.9,7-1.9,14.5c0,0.9,0,1.8,0.1,2.7l0.3,0l0-0.3c-0.9-0.1-1.8-0.1-2.7-0.1
		c-7.5,0-14.5,1.9-14.5,1.9l-0.3,0.1l0.1,0.2c0,0,2.4,8.8,7.1,15.8l0.2-0.1l-0.1-0.2c-7.6,3.7-14,10.1-14,10.2l-0.2,0.2l0.2,0.2
		c0,0,6.4,6.4,14,10.1l0.1-0.2l-0.2-0.1c-4.7,7-7.1,15.8-7.1,15.8l-0.1,0.3l0.3,0.1c0,0,7,1.9,14.5,1.9c0.9,0,1.8,0,2.7-0.1l0-0.3
		l-0.3,0c-0.1,0.9-0.1,1.8-0.1,2.7c0,7.5,1.9,14.5,1.9,14.5l0.1,0.2l0.3-0.1c0,0,8.8-2.4,15.8-7.1l-0.1-0.2l-0.2,0.1
		c3.7,7.6,10.1,14,10.2,14l0.2,0.2l0.2-0.2c0,0,6.4-6.4,10.2-14l-0.2-0.1l-0.1,0.2c7,4.7,15.8,7.1,15.8,7.1l0.3,0.1l0.1-0.2
		c0,0,1.9-7,1.9-14.5c0-0.9,0-1.8-0.1-2.7l-0.3,0l0,0.3c0.9,0.1,1.8,0.1,2.7,0.1c7.5,0,14.5-1.9,14.5-1.9l0.3-0.1l-0.1-0.3
		c0,0-2.4-8.8-7.1-15.8l-0.2,0.1l0.1,0.2c7.6-3.7,14-10.1,14-10.1l0.2-0.2L153,101L152.8,101.1l-0.2-0.2c0,0-0.1,0.1-0.3,0.3
		c-1.3,1.3-7,6.6-13.6,9.8l-0.3,0.1l0.2,0.2c2.3,3.5,4.1,7.4,5.2,10.4c0.6,1.5,1,2.8,1.3,3.8c0.1,0.5,0.3,0.8,0.3,1.1
		c0.1,0.3,0.1,0.4,0.1,0.4l0.3-0.1l-0.1-0.2c0,0-0.1,0-0.3,0.1c-1.4,0.4-7.6,1.8-14.1,1.8c-0.9,0-1.8,0-2.7-0.1l-0.3,0l0,0.3
		c0.1,0.9,0.1,1.8,0.1,2.7c0,3.7-0.5,7.3-0.9,10c-0.2,1.3-0.5,2.4-0.6,3.2c-0.1,0.4-0.2,0.7-0.2,0.9c-0.1,0.2-0.1,0.3-0.1,0.3
		l0.2,0.1l0.1-0.2c0,0-0.1,0-0.4-0.1c-1.8-0.5-9.2-2.8-15.3-6.9l-0.2-0.2l-0.1,0.3c-1.8,3.7-4.4,7.2-6.4,9.8c-1,1.3-1.9,2.3-2.6,3
		c-0.3,0.4-0.6,0.6-0.8,0.8c-0.2,0.2-0.3,0.3-0.3,0.3l0.2,0.2l0.2-0.2c0,0-0.1-0.1-0.3-0.3c-1.3-1.3-6.6-7-9.8-13.6l-0.1-0.3
		l-0.2,0.2c-3.5,2.3-7.4,4.1-10.4,5.2c-1.5,0.6-2.8,1-3.8,1.3c-0.5,0.1-0.8,0.3-1.1,0.3c-0.3,0.1-0.4,0.1-0.4,0.1l0.1,0.2l0.2-0.1
		c0,0,0-0.1-0.1-0.3c-0.4-1.4-1.8-7.6-1.8-14.1c0-0.9,0-1.8,0.1-2.7l0-0.3l-0.3,0c-0.9,0.1-1.8,0.1-2.7,0.1c-3.7,0-7.3-0.5-10-0.9
		c-1.3-0.2-2.4-0.5-3.2-0.6c-0.4-0.1-0.7-0.2-0.9-0.2c-0.2-0.1-0.3-0.1-0.3-0.1l-0.1,0.3l0.2,0.1c0,0,0-0.1,0.1-0.4
		c0.5-1.8,2.8-9.2,6.9-15.3l0.2-0.2l-0.3-0.1c-3.7-1.8-7.2-4.4-9.8-6.4c-1.3-1-2.3-1.9-3-2.6c-0.4-0.3-0.6-0.6-0.8-0.8
		c-0.2-0.2-0.3-0.3-0.3-0.3l-0.2,0.2l0.2,0.2c0,0,0.1-0.1,0.3-0.3c1.3-1.3,7-6.6,13.6-9.8l0.3-0.1l-0.2-0.2
		c-2.3-3.5-4.1-7.4-5.2-10.4c-0.6-1.5-1-2.8-1.3-3.8c-0.1-0.5-0.3-0.8-0.3-1.1c-0.1-0.3-0.1-0.4-0.1-0.4l-0.2,0.1l0.1,0.2
		c0,0,0.1,0,0.3-0.1c1.4-0.4,7.6-1.8,14.1-1.8c0.9,0,1.8,0,2.7,0.1l0.3,0l0-0.3c-0.1-0.9-0.1-1.8-0.1-2.7c0-3.7,0.5-7.3,0.9-10
		c0.2-1.3,0.5-2.4,0.6-3.2c0.1-0.4,0.2-0.7,0.2-0.9c0.1-0.2,0.1-0.3,0.1-0.3l-0.2-0.1l-0.1,0.2c0,0,0.1,0,0.4,0.1
		c1.8,0.5,9.2,2.8,15.3,6.9l0.2,0.2l0.1-0.3c1.8-3.7,4.4-7.2,6.4-9.8c1-1.3,1.9-2.3,2.6-3c0.3-0.4,0.6-0.6,0.8-0.8
		c0.2-0.2,0.3-0.3,0.3-0.3l-0.2-0.2l-0.2,0.2c0,0,0.1,0.1,0.3,0.3c1.3,1.3,6.6,7,9.8,13.6l0.1,0.3l0.2-0.2c3.5-2.3,7.4-4.1,10.4-5.2
		c1.5-0.6,2.8-1,3.8-1.3c0.5-0.1,0.8-0.3,1.1-0.3c0.3-0.1,0.4-0.1,0.4-0.1l-0.1-0.2l-0.2,0.1c0,0,0,0.1,0.1,0.3
		c0.4,1.4,1.8,7.6,1.8,14.1c0,0.9,0,1.8-0.1,2.7l0,0.3l0.3,0c0.9-0.1,1.8-0.1,2.7-0.1c3.7,0,7.3,0.5,10,0.9c1.3,0.2,2.4,0.5,3.2,0.6
		c0.4,0.1,0.7,0.2,0.9,0.2c0.2,0.1,0.3,0.1,0.3,0.1l0.1-0.2l-0.3-0.1c0,0,0,0.1-0.1,0.4c-0.5,1.8-2.8,9.2-6.9,15.3l-0.2,0.2l0.3,0.1
		c3.7,1.8,7.2,4.4,9.8,6.4c1.3,1,2.3,1.9,3,2.6c0.4,0.3,0.6,0.6,0.8,0.8c0.2,0.2,0.3,0.3,0.3,0.3L152.8,101.1l-0.2-0.2L152.8,101.1z
		"/>
	<polygon class="st2" points="101.1,126.5 93.7,131.6 83.4,121.9 83.4,103 70,90.6 89.1,70.7 101.1,82.1 113.2,70.7 132.2,90.6 
		118.9,103 118.9,121.9 108.5,131.6 	"/>
	<polygon points="101.1,126.5 100.3,125.2 93.9,129.6 84.9,121.2 84.9,102.4 72.2,90.5 89.1,72.9 101.1,84.2 113.1,72.9 130,90.5 
		117.4,102.4 117.4,121.2 108.4,129.6 101.1,124.6 100.3,125.2 101.1,126.5 100.3,127.8 108.7,133.6 120.5,122.5 120.5,103.7 
		134.4,90.6 113.3,68.5 101.1,80 89,68.5 67.8,90.6 81.8,103.7 81.8,122.5 93.6,133.6 102,127.8 101.1,126.5 100.3,127.8 	"/>
	<path d="M102.7,125.3v-10.2c0-0.9-0.7-1.5-1.5-1.5c-0.9,0-1.5,0.7-1.5,1.5v10.2c0,0.9,0.7,1.5,1.5,1.5
		C102,126.8,102.7,126.1,102.7,125.3"/>
	<path d="M93.2,114.9H109c0.9,0,1.5-0.7,1.5-1.5c0-0.9-0.7-1.5-1.5-1.5H93.2c-0.9,0-1.5,0.7-1.5,1.5
		C91.7,114.2,92.4,114.9,93.2,114.9"/>
	<path d="M91.1,96.6h3.3v15.6c0,0.9,0.7,1.5,1.5,1.5c0.9,0,1.5-0.7,1.5-1.5V93.5h-6.4c-0.9,0-1.5,0.7-1.5,1.5
		C89.5,95.9,90.2,96.6,91.1,96.6"/>
	<path d="M111.2,93.5h-6.4v18.7c0,0.9,0.7,1.5,1.5,1.5c0.9,0,1.5-0.7,1.5-1.5V96.6h3.3c0.9,0,1.5-0.7,1.5-1.5
		C112.7,94.2,112,93.5,111.2,93.5"/>
	<polyline points="108.9,113.1 101.1,120.9 93.4,113.1 	"/>
	<polygon points="108.7,113 101.1,120.5 93.6,113 93.2,113.3 101.1,121.2 109.1,113.3 	"/>
	<path class="st2" d="M41.8,44.2l12.5,12.5c0.6,0.6,1.6,0.6,2.2,0c0.6-0.6,0.6-1.6,0-2.2L44,42c-0.6-0.6-1.6-0.6-2.2,0
		C41.2,42.6,41.2,43.6,41.8,44.2"/>
	<path class="st2" d="M146.2,148.6l12.5,12.5c0.6,0.6,1.6,0.6,2.2,0c0.6-0.6,0.6-1.6,0-2.2l-12.5-12.5c-0.6-0.6-1.6-0.6-2.2,0
		C145.6,147,145.6,148,146.2,148.6"/>
	<path class="st2" d="M20.6,80.9l17.1,4.6c0.8,0.2,1.7-0.3,1.9-1.1c0.2-0.8-0.3-1.7-1.1-1.9l-17.1-4.6c-0.8-0.2-1.7,0.3-1.9,1.1
		C19.3,79.8,19.8,80.7,20.6,80.9"/>
	<path class="st2" d="M163.3,119.1l17.1,4.6c0.8,0.2,1.7-0.3,1.9-1.1c0.2-0.8-0.3-1.7-1.1-1.9l-17.1-4.6c-0.8-0.2-1.7,0.3-1.9,1.1
		C162,118.1,162.5,118.9,163.3,119.1"/>
	<path class="st2" d="M21.9,124.5l17.1-4.6c0.8-0.2,1.3-1.1,1.1-1.9c-0.2-0.8-1.1-1.3-1.9-1.1l-17.1,4.6c-0.8,0.2-1.3,1.1-1.1,1.9
		C20.2,124.2,21,124.7,21.9,124.5"/>
	<path class="st2" d="M164.5,86.3l17.1-4.6c0.8-0.2,1.3-1.1,1.1-1.9c-0.2-0.8-1.1-1.3-1.9-1.1l-17.1,4.6c-0.8,0.2-1.3,1.1-1.1,1.9
		C162.9,86,163.7,86.5,164.5,86.3"/>
	<path class="st2" d="M43.5,160.4l12.5-12.5c0.6-0.6,0.6-1.6,0-2.2c-0.6-0.6-1.6-0.6-2.2,0l-12.5,12.5c-0.6,0.6-0.6,1.6,0,2.2
		C41.9,161,42.9,161,43.5,160.4"/>
	<path class="st2" d="M148,56l12.5-12.5c0.6-0.6,0.6-1.6,0-2.2c-0.6-0.6-1.6-0.6-2.2,0l-12.5,12.5c-0.6,0.6-0.6,1.6,0,2.2
		C146.4,56.6,147.4,56.6,148,56"/>
	<path class="st2" d="M81.4,181l4.6-17.1c0.2-0.8-0.3-1.7-1.1-1.9c-0.8-0.2-1.7,0.3-1.9,1.1l-4.6,17.1c-0.2,0.8,0.3,1.7,1.1,1.9
		C80.4,182.3,81.2,181.8,81.4,181"/>
	<path class="st2" d="M119.7,38.3l4.6-17.1c0.2-0.8-0.3-1.7-1.1-1.9c-0.8-0.2-1.7,0.3-1.9,1.1l-4.6,17.1c-0.2,0.8,0.3,1.7,1.1,1.9
		C118.6,39.6,119.5,39.2,119.7,38.3"/>
	<path class="st2" d="M124.3,181.1l-4.6-17.1c-0.2-0.8-1.1-1.3-1.9-1.1c-0.8,0.2-1.3,1.1-1.1,1.9l4.6,17.1c0.2,0.8,1.1,1.3,1.9,1.1
		C124,182.8,124.5,181.9,124.3,181.1"/>
	<path class="st2" d="M86,38.4l-4.6-17.1c-0.2-0.8-1.1-1.3-1.9-1.1c-0.8,0.2-1.3,1.1-1.1,1.9L83,39.2c0.2,0.8,1.1,1.3,1.9,1.1
		C85.8,40.1,86.3,39.2,86,38.4"/>
	<path class="st2" d="M14.9,53.7l5.8,3.4c0.7,0.4,1.7,0.2,2.1-0.6c0.4-0.7,0.2-1.7-0.6-2.1L16.4,51c-0.7-0.4-1.7-0.2-2.1,0.6
		C13.9,52.3,14.1,53.3,14.9,53.7"/>
	<path class="st2" d="M27.6,61l5.8,3.4c0.7,0.4,1.7,0.2,2.1-0.6c0.4-0.7,0.2-1.7-0.6-2.1l-5.8-3.4c-0.7-0.4-1.7-0.2-2.1,0.6
		C26.6,59.7,26.8,60.6,27.6,61"/>
	<path class="st2" d="M168.9,142.6l5.8,3.4c0.7,0.4,1.7,0.2,2.1-0.6c0.4-0.7,0.2-1.7-0.6-2.1l-5.8-3.3c-0.7-0.4-1.7-0.2-2.1,0.6
		C167.9,141.3,168.1,142.2,168.9,142.6"/>
	<path class="st2" d="M181.6,150l5.8,3.4c0.7,0.4,1.7,0.2,2.1-0.6c0.4-0.7,0.2-1.7-0.6-2.1l-5.8-3.4c-0.7-0.4-1.7-0.2-2.1,0.6
		C180.6,148.6,180.8,149.5,181.6,150"/>
	<path class="st2" d="M1.5,103h6.7c0.9,0,1.5-0.7,1.5-1.5c0-0.9-0.7-1.5-1.5-1.5H1.5c-0.9,0-1.5,0.7-1.5,1.5
		C0,102.3,0.7,103,1.5,103"/>
	<path class="st2" d="M16.2,103h6.7c0.9,0,1.5-0.7,1.5-1.5c0-0.9-0.7-1.5-1.5-1.5h-6.7c-0.9,0-1.5,0.7-1.5,1.5
		C14.7,102.3,15.3,103,16.2,103"/>
	<path class="st2" d="M179.4,103h6.7c0.9,0,1.5-0.7,1.5-1.5c0-0.9-0.7-1.5-1.5-1.5h-6.7c-0.9,0-1.5,0.7-1.5,1.5
		C177.8,102.3,178.5,103,179.4,103"/>
	<path class="st2" d="M194,103h6.7c0.9,0,1.5-0.7,1.5-1.5c0-0.9-0.7-1.5-1.5-1.5H194c-0.9,0-1.5,0.7-1.5,1.5
		C192.5,102.3,193.2,103,194,103"/>
	<path class="st2" d="M16.4,153.3l5.8-3.3c0.7-0.4,1-1.4,0.6-2.1c-0.4-0.7-1.4-1-2.1-0.6l-5.8,3.4c-0.7,0.4-1,1.4-0.6,2.1
		C14.7,153.5,15.7,153.7,16.4,153.3"/>
	<path class="st2" d="M29.1,146l5.8-3.4c0.7-0.4,1-1.4,0.6-2.1c-0.4-0.7-1.4-1-2.1-0.6l-5.8,3.4c-0.7,0.4-1,1.4-0.6,2.1
		C27.4,146.2,28.4,146.4,29.1,146"/>
	<path class="st2" d="M170.4,64.4l5.8-3.4c0.7-0.4,1-1.4,0.6-2.1c-0.4-0.7-1.4-1-2.1-0.6l-5.8,3.4c-0.7,0.4-1,1.4-0.6,2.1
		C168.7,64.6,169.7,64.8,170.4,64.4"/>
	<path class="st2" d="M183.1,57.1l5.8-3.4c0.7-0.4,1-1.4,0.6-2.1c-0.4-0.7-1.4-1-2.1-0.6l-5.8,3.4c-0.7,0.4-1,1.4-0.6,2.1
		C181.4,57.2,182.4,57.5,183.1,57.1"/>
	<path class="st2" d="M52.7,188.4l3.4-5.8c0.4-0.7,0.2-1.7-0.6-2.1c-0.7-0.4-1.7-0.2-2.1,0.6l-3.4,5.8c-0.4,0.7-0.2,1.7,0.6,2.1
		C51.3,189.4,52.3,189.2,52.7,188.4"/>
	<path class="st2" d="M60,175.7l3.4-5.8c0.4-0.7,0.2-1.7-0.6-2.1c-0.7-0.4-1.7-0.2-2.1,0.6l-3.4,5.8c-0.4,0.7-0.2,1.7,0.6,2.1
		C58.6,176.7,59.6,176.5,60,175.7"/>
	<path class="st2" d="M141.6,34.4l3.4-5.8c0.4-0.7,0.2-1.7-0.6-2.1c-0.7-0.4-1.7-0.2-2.1,0.6l-3.4,5.8c-0.4,0.7-0.2,1.7,0.6,2.1
		C140.2,35.4,141.2,35.2,141.6,34.4"/>
	<path class="st2" d="M148.9,21.7l3.4-5.8c0.4-0.7,0.2-1.7-0.6-2.1c-0.7-0.4-1.7-0.2-2.1,0.6l-3.4,5.8c-0.4,0.7-0.2,1.7,0.6,2.1
		C147.6,22.7,148.5,22.5,148.9,21.7"/>
	<path class="st2" d="M103.2,200.7l0-6.7c0-0.9-0.7-1.5-1.5-1.5c-0.9,0-1.5,0.7-1.5,1.5l0,6.7c0,0.9,0.7,1.5,1.5,1.5
		C102.5,202.3,103.2,201.6,103.2,200.7"/>
	<path class="st2" d="M103.2,186.1v-6.7c0-0.9-0.7-1.5-1.5-1.5c-0.9,0-1.5,0.7-1.5,1.5l0,6.7c0,0.9,0.7,1.5,1.5,1.5
		C102.5,187.6,103.2,186.9,103.2,186.1"/>
	<path class="st2" d="M103.2,22.9v-6.7c0-0.9-0.7-1.5-1.5-1.5c-0.9,0-1.5,0.7-1.5,1.5v6.7c0,0.9,0.7,1.5,1.5,1.5
		C102.5,24.5,103.2,23.8,103.2,22.9"/>
	<path class="st2" d="M103.2,8.3V1.5c0-0.9-0.7-1.5-1.5-1.5c-0.9,0-1.5,0.7-1.5,1.5l0,6.7c0,0.9,0.7,1.5,1.5,1.5
		C102.5,9.8,103.2,9.1,103.2,8.3"/>
	<path class="st2" d="M153,187.6l-3.4-5.8c-0.4-0.7-1.4-1-2.1-0.6c-0.7,0.4-1,1.4-0.6,2.1l3.4,5.8c0.4,0.7,1.4,1,2.1,0.6
		C153.2,189.3,153.5,188.4,153,187.6"/>
	<path class="st2" d="M145.7,175l-3.4-5.8c-0.4-0.7-1.4-1-2.1-0.6c-0.7,0.4-1,1.4-0.6,2.1l3.4,5.8c0.4,0.7,1.4,1,2.1,0.6
		C145.9,176.6,146.1,175.7,145.7,175"/>
	<path class="st2" d="M64.1,33.6l-3.4-5.8c-0.4-0.7-1.4-1-2.1-0.6c-0.7,0.4-1,1.4-0.6,2.1l3.4,5.8c0.4,0.7,1.4,1,2.1,0.6
		C64.3,35.3,64.5,34.4,64.1,33.6"/>
	<path class="st2" d="M56.8,21l-3.4-5.8c-0.4-0.7-1.4-1-2.1-0.6c-0.7,0.4-1,1.4-0.6,2.1l3.4,5.8c0.4,0.7,1.4,1,2.1,0.6
		C57,22.6,57.2,21.7,56.8,21"/>
	<g>
	</g>
	<g>
	</g>
	<g>
	</g>
	<g>
	</g>
	<g>
	</g>
	<g>
	</g>
</g>
</svg>
