<?xml version="1.0" encoding="utf-8"?>
<!-- Generator: Adobe Illustrator 19.2.0, SVG Export Plug-In . SVG Version: 6.00 Build 0)  -->
<svg version="1.1" id="Layer_1" xmlns="http://www.w3.org/2000/svg" xmlns:xlink="http://www.w3.org/1999/xlink" x="0px" y="0px"
	 viewBox="0 0 100.2 100.2" style="enable-background:new 0 0 100.2 100.2;" xml:space="preserve">
<style type="text/css">
	.st0{fill:#FFFFFF;}
</style>
<path class="st0" d="M83.8,49.6c0,0-1.1-1.1-2.7-2.4c-1.5-1.2-3.5-2.7-5.7-3.9c1.3-2.1,2.3-4.4,3-6.2c0.8-2,1.1-3.4,1.2-3.4l0.2-0.7
	L79,32.9c0,0-1.2-0.3-2.9-0.6c-1.7-0.3-4.1-0.6-6.6-0.6c-0.3,0-0.7,0-1,0c0-0.3,0-0.7,0-1c0-2.5-0.3-4.8-0.6-6.5
	c-0.3-1.7-0.6-2.9-0.6-2.9l-0.2-0.7l-0.7,0.2c0,0-1.4,0.4-3.4,1.2c-1.8,0.7-4.1,1.7-6.2,3c-1.2-2.2-2.6-4.2-3.9-5.7
	c-1.3-1.7-2.4-2.7-2.4-2.7L50.1,16l-0.5,0.5c0,0-1.1,1.1-2.4,2.7c-1.2,1.5-2.7,3.5-3.9,5.7c-2.1-1.3-4.4-2.3-6.2-3
	c-2-0.8-3.4-1.1-3.4-1.2L33,20.5l-0.2,0.7c0,0-0.3,1.2-0.6,2.9c-0.3,1.7-0.6,4.1-0.6,6.5c0,0.3,0,0.7,0,1c-0.3,0-0.7,0-1,0
	c-2.5,0-4.8,0.3-6.5,0.6c-1.7,0.3-2.9,0.6-2.9,0.6L20.5,33l0.2,0.7c0,0,0.4,1.4,1.2,3.4c0.7,1.8,1.7,4.1,3,6.2
	c-2.2,1.2-4.2,2.6-5.7,3.9c-1.7,1.3-2.7,2.4-2.7,2.4L16,50.1l0.5,0.5c0,0,1.1,1.1,2.7,2.4c1.5,1.2,3.5,2.7,5.7,3.9
	c-1.3,2.1-2.3,4.4-3,6.2c-0.8,2-1.1,3.4-1.2,3.4l-0.2,0.7l0.7,0.2c0,0,1.2,0.3,2.9,0.6c1.7,0.3,4.1,0.6,6.5,0.6c0.3,0,0.7,0,1,0
	c0,0.3,0,0.7,0,1c0,2.5,0.3,4.8,0.6,6.5c0.3,1.7,0.6,2.9,0.6,2.9l0.2,0.7l0.7-0.2c0,0,1.4-0.4,3.4-1.2c1.8-0.7,4.1-1.7,6.2-3
	c1.2,2.2,2.6,4.2,3.9,5.7c1.3,1.7,2.4,2.7,2.4,2.7l0.5,0.5l0.5-0.5c0,0,1.1-1.1,2.4-2.7c1.2-1.5,2.7-3.5,3.9-5.7
	c2.1,1.3,4.4,2.3,6.2,3c2,0.8,3.4,1.1,3.4,1.2l0.7,0.2l0.2-0.7c0,0,0.3-1.2,0.6-2.9c0.3-1.7,0.6-4.1,0.6-6.5c0-0.3,0-0.7,0-1
	c0.3,0,0.7,0,1,0c2.5,0,4.8-0.3,6.5-0.6c1.7-0.3,2.9-0.6,2.9-0.6l0.7-0.2l-0.2-0.7c0,0-0.4-1.4-1.2-3.4c-0.7-1.8-1.7-4.1-3-6.2
	c2.2-1.2,4.2-2.6,5.7-3.9c1.7-1.3,2.7-2.4,2.7-2.4l0.5-0.5L83.8,49.6z"/>
<path d="M80.6,52.5c-1.5,1.2-3.5,2.6-5.6,3.8l-0.6,0.3l0.4,0.6c1.3,2.1,2.3,4.3,3,6.1l0,0c0.4,1,0.7,1.8,0.8,2.4
	c0.1,0.3,0.2,0.5,0.2,0.7c0,0.1,0,0.1,0.1,0.2l0,0l0,0l0,0l0,0l0,0h0c-0.1,0-1.2,0.3-2.8,0.6c-1.7,0.3-4,0.6-6.4,0.6
	c-0.3,0-0.7,0-1,0l-0.7,0l0,0.7c0,0.3,0,0.7,0,1c0,2.4-0.3,4.7-0.6,6.4c-0.3,1.7-0.6,2.8-0.6,2.8v0l0,0l0,0l0,0h0
	c-0.1,0-1.5-0.4-3.4-1.1c-1.8-0.7-4-1.7-6.1-3l-0.6-0.4L56.3,75c-1.1,2.2-2.6,4.1-3.8,5.6c-0.7,0.8-1.3,1.5-1.7,1.9
	c-0.2,0.2-0.4,0.4-0.5,0.5c-0.1,0.1-0.2,0.2-0.2,0.2l0,0l0,0c0,0-0.1-0.1-0.2-0.2c-0.4-0.4-1.2-1.3-2.2-2.5
	c-1.2-1.5-2.6-3.5-3.8-5.6l-0.3-0.6L43,74.8c-2.1,1.3-4.3,2.3-6.1,3c-1,0.4-1.8,0.7-2.4,0.8c-0.3,0.1-0.5,0.2-0.7,0.2
	c-0.1,0-0.1,0-0.2,0.1l0,0l0,0l0,0l0,0l0,0c0,0-0.3-1.1-0.6-2.8c-0.3-1.7-0.6-4-0.6-6.4c0-0.3,0-0.7,0-1l0-0.7l-0.7,0
	c-0.3,0-0.7,0-1,0c-2.4,0-4.7-0.3-6.4-0.6c-0.9-0.1-1.6-0.3-2.1-0.4c-0.2-0.1-0.4-0.1-0.6-0.1c-0.1,0-0.1,0-0.2,0l0,0l0,0l0,0h0l0,0
	l0,0l0,0l0,0c0-0.1,0.4-1.5,1.1-3.4c0.7-1.8,1.7-4,3-6.1l0.4-0.6l-0.6-0.3c-2.2-1.1-4.1-2.6-5.6-3.8c-0.8-0.7-1.5-1.3-1.9-1.7
	c-0.2-0.2-0.4-0.4-0.5-0.5c-0.1-0.1-0.1-0.1-0.1-0.1l0,0l0,0l0,0l0,0l0,0v0c0,0,0.3-0.3,0.7-0.7c0.5-0.4,1.1-1,1.9-1.7
	c1.5-1.2,3.5-2.7,5.6-3.8l0.6-0.3L25.5,43c-1.3-2.1-2.3-4.3-3-6.1l0,0c-0.4-1-0.7-1.8-0.8-2.4c-0.1-0.3-0.2-0.5-0.2-0.7
	c0-0.1,0-0.1-0.1-0.2l0,0l0,0l0,0v0l0,0l0,0l0,0c0,0,1.1-0.3,2.8-0.6c1.7-0.3,4-0.6,6.4-0.6c0.3,0,0.7,0,1,0l0.7,0l0-0.7
	c0-0.3,0-0.7,0-1c0-2.4,0.3-4.7,0.6-6.4c0.1-0.9,0.3-1.6,0.4-2.1c0.1-0.2,0.1-0.4,0.1-0.6c0-0.1,0-0.1,0-0.2l0,0l0,0l0,0l0,0l0,0
	l0,0l0,0c0,0,0.1,0,0.3,0.1c0.5,0.1,1.6,0.5,3.1,1.1c1.8,0.7,4,1.7,6.1,3l0.6,0.4l0.3-0.6c1.1-2.2,2.6-4.1,3.8-5.6
	c0.7-0.8,1.3-1.5,1.7-1.9c0.2-0.2,0.4-0.4,0.5-0.5C50,17.1,50,17,50.1,17l0,0l0,0l0,0l0,0l0,0l0,0l0,0l0,0.1
	c0.2,0.2,1.1,1.2,2.3,2.6c1.2,1.5,2.6,3.5,3.8,5.6l0.3,0.6l0.6-0.4c2.1-1.3,4.3-2.3,6.1-3c2-0.8,3.4-1.1,3.4-1.1l0,0l0,0
	c0,0,0.3,1.1,0.6,2.8v0c0.3,1.7,0.6,4,0.6,6.4c0,0.3,0,0.7,0,1l0,0.7l0.7,0c0.3,0,0.7,0,1,0c2.4,0,4.7,0.3,6.4,0.6
	c0.9,0.2,1.6,0.3,2.1,0.4c0.2,0.1,0.4,0.1,0.6,0.1c0.1,0,0.1,0,0.1,0l0,0l0,0h0l0,0l0,0l0,0l0,0c0,0.1-0.4,1.5-1.1,3.4
	c-0.7,1.8-1.7,4-3,6.1l-0.4,0.6L75,44c2.2,1.1,4.1,2.6,5.6,3.8c0.8,0.7,1.5,1.3,1.9,1.7c0.2,0.2,0.4,0.4,0.5,0.5
	c0.1,0.1,0.1,0.1,0.1,0.1l0,0l0,0l0,0l0,0l0,0l0,0l0,0l0,0h0C83.3,50.2,82.2,51.2,80.6,52.5 M84.3,49.2L84.3,49.2
	c-0.1-0.1-1.1-1.1-2.8-2.5c-1.4-1.1-3.2-2.5-5.2-3.6c1.2-2,2.1-4.1,2.7-5.7c0.4-1,0.7-1.9,0.9-2.5c0.1-0.3,0.2-0.6,0.2-0.7
	c0-0.1,0-0.2,0.1-0.2l0-0.1l0,0l0,0l0,0l0.4-1.3l-1.3-0.4l0,0c0,0-1.2-0.3-3-0.6c-1.8-0.3-4.2-0.6-6.7-0.6c-0.1,0-0.2,0-0.3,0
	c0-0.1,0-0.2,0-0.3c0-2.5-0.3-4.9-0.6-6.7h0c-0.3-1.8-0.6-2.9-0.6-3l-0.4-1.3l-1.3,0.4l0,0c0,0-1.5,0.4-3.5,1.2
	c-1.7,0.6-3.7,1.5-5.7,2.7c-1.1-2-2.5-3.8-3.6-5.2c-0.7-0.8-1.3-1.5-1.7-2c-0.2-0.2-0.4-0.4-0.5-0.6c-0.1-0.1-0.1-0.1-0.1-0.1l0,0
	l0,0l0,0l-1-1l-1,1l0,0c0,0-0.3,0.3-0.7,0.8c-0.4,0.5-1,1.2-1.7,2c-1.1,1.4-2.5,3.2-3.6,5.2c-2-1.2-4.1-2.1-5.7-2.7
	c-2-0.8-3.5-1.2-3.5-1.2l-1.3-0.4L32.2,21v0c0,0-0.3,1.2-0.6,3c-0.3,1.8-0.6,4.2-0.6,6.7c0,0.1,0,0.2,0,0.3c-0.1,0-0.2,0-0.3,0
	c-2.5,0-4.9,0.3-6.7,0.6c-1.8,0.3-2.9,0.6-3,0.6l0,0l-1.3,0.4l0.4,1.3l0,0c0,0,0.4,1.5,1.2,3.5v0c0.6,1.7,1.5,3.7,2.7,5.7
	c-2,1.1-3.8,2.5-5.2,3.6c-1.7,1.4-2.7,2.4-2.8,2.4l0,0l-1,1l1,1l0,0c0,0,1.1,1.1,2.8,2.4c1.4,1.1,3.2,2.5,5.2,3.6
	c-1.2,2-2.1,4.1-2.7,5.7c-0.4,1-0.7,1.9-0.9,2.5c-0.1,0.3-0.2,0.6-0.2,0.7c0,0.1,0,0.2-0.1,0.2l0,0.1l0,0l-0.4,1.3L21,68l0,0
	c0,0,1.2,0.3,3,0.6c1.8,0.3,4.2,0.6,6.7,0.6c0.1,0,0.2,0,0.3,0c0,0.1,0,0.2,0,0.3c0,2.5,0.3,4.9,0.6,6.7c0.3,1.8,0.6,2.9,0.6,3
	l0.4,1.3l1.3-0.4c0.1,0,1.5-0.4,3.5-1.2c1.7-0.6,3.7-1.5,5.7-2.7c1.1,2,2.5,3.8,3.6,5.2c0.7,0.8,1.3,1.5,1.7,2
	c0.2,0.2,0.4,0.4,0.5,0.6c0.1,0.1,0.1,0.1,0.1,0.1l0,0l0,0l0,0l1,1l1-1v0c0,0,1.1-1.1,2.4-2.8c1.1-1.4,2.5-3.2,3.6-5.2
	c2,1.2,4.1,2.1,5.7,2.7c1,0.4,1.9,0.7,2.5,0.9c0.3,0.1,0.6,0.2,0.7,0.2c0.2,0.1,0.3,0.1,0.3,0.1l0,0l1.3,0.4l0.4-1.3l0,0
	c0,0,0.3-1.2,0.6-3c0.3-1.8,0.6-4.2,0.6-6.7c0-0.1,0-0.2,0-0.3c0.1,0,0.2,0,0.3,0c2.5,0,4.9-0.3,6.7-0.6c1.8-0.3,2.9-0.6,3-0.6l0,0
	l1.3-0.4l-0.4-1.3c0-0.1-0.4-1.5-1.2-3.5v0c-0.6-1.7-1.5-3.7-2.7-5.7c2-1.1,3.8-2.5,5.2-3.6c0.8-0.7,1.5-1.3,2-1.7
	c0.2-0.2,0.4-0.4,0.6-0.5c0.1-0.1,0.1-0.1,0.1-0.1l0,0l0,0l1-1L84.3,49.2z"/>
<path d="M75.8,50.1c0,0-3.2-3.2-6.9-5c2.3-3.5,3.5-7.8,3.5-7.8s-4.3-1.2-8.5-0.9c0.3-4.2-0.9-8.5-0.9-8.5s-4.3,1.2-7.8,3.5
	c-1.8-3.7-5-6.9-5-6.9s-3.2,3.2-5,6.9c-3.5-2.3-7.8-3.5-7.8-3.5s-1.2,4.3-0.9,8.5c-4.2-0.3-8.5,0.9-8.5,0.9s1.2,4.3,3.5,7.8
	c-3.7,1.8-6.9,5-6.9,5s3.2,3.2,6.9,5c-2.3,3.5-3.5,7.8-3.5,7.8s4.3,1.2,8.5,0.9c-0.3,4.2,0.9,8.5,0.9,8.5s4.3-1.2,7.8-3.5
	c1.8,3.7,5,6.9,5,6.9s3.2-3.2,5-6.9c3.5,2.3,7.8,3.5,7.8,3.5s1.2-4.3,0.9-8.5c4.2,0.3,8.5-0.9,8.5-0.9s-1.2-4.3-3.5-7.8
	C72.6,53.3,75.8,50.1,75.8,50.1"/>
<polygon class="st0" points="50.1,62.7 46.5,65.2 41.3,60.4 41.3,51.1 34.7,44.9 44.1,35 50.1,40.7 56.1,35 65.6,44.9 58.9,51.1 
	58.9,60.4 53.8,65.2 "/>
<g>
	<path d="M58.2,50.8v9.3l-4.5,4.2l-2.9-2c0-0.1,0-0.1,0-0.2v-2.9l2.3-2.3H54c0.4,0,0.7-0.3,0.7-0.7c0-0.4-0.3-0.7-0.7-0.7h-0.6v-7.7
		h1.7c0.4,0,0.7-0.3,0.7-0.7c0-0.4-0.3-0.7-0.7-0.7H52v9.1h-3.7v-9.1h-3.1c-0.4,0-0.7,0.3-0.7,0.7c0,0.4,0.3,0.7,0.7,0.7h1.7v7.7
		h-0.6c-0.4,0-0.7,0.3-0.7,0.7c0,0.4,0.3,0.7,0.7,0.7h0.9l2.3,2.3v2.9c0,0.1,0,0.1,0,0.2l-2.9,2L42,60.1v-9.3l-6.3-5.9l8.5-8.8
		l6,5.6l6-5.6l8.5,8.8L58.2,50.8z M56.1,34l-6,5.7l-6-5.7L33.7,44.9l6.9,6.5v9.3l5.8,5.4l3.7-2.6l3.7,2.6l5.8-5.4v-9.3l6.9-6.5
		L56.1,34z"/>
	<path d="M20.7,21.8l6.2,6.2c0.3,0.3,0.7,0.3,1,0c0.3-0.3,0.3-0.7,0-1l-6.2-6.2c-0.3-0.3-0.7-0.3-1,0C20.4,21.1,20.4,21.5,20.7,21.8
		"/>
	<path d="M72.5,73.6l6.2,6.2c0.3,0.3,0.7,0.3,1,0c0.3-0.3,0.3-0.7,0-1l-6.2-6.2c-0.3-0.3-0.7-0.3-1,0C72.3,72.9,72.3,73.4,72.5,73.6
		"/>
	<path d="M10.2,40l8.5,2.3c0.4,0.1,0.8-0.1,0.9-0.5c0.1-0.4-0.1-0.8-0.5-0.9l-8.5-2.3c-0.4-0.1-0.8,0.1-0.9,0.5
		C9.6,39.5,9.8,39.9,10.2,40"/>
	<path d="M81,59l8.5,2.3c0.4,0.1,0.8-0.1,0.9-0.5c0.1-0.4-0.1-0.8-0.5-0.9l-8.5-2.3c-0.4-0.1-0.8,0.1-0.9,0.5
		C80.4,58.5,80.6,58.9,81,59"/>
	<path d="M10.8,61.6l8.5-2.3c0.4-0.1,0.6-0.5,0.5-0.9c-0.1-0.4-0.5-0.6-0.9-0.5l-8.5,2.3c-0.4,0.1-0.6,0.5-0.5,0.9
		C10,61.5,10.4,61.7,10.8,61.6"/>
	<path d="M81.6,42.7l8.5-2.3c0.4-0.1,0.6-0.5,0.5-0.9c-0.1-0.4-0.5-0.6-0.9-0.5l-8.5,2.3c-0.4,0.1-0.6,0.5-0.5,0.9
		C80.8,42.6,81.2,42.8,81.6,42.7"/>
	<path d="M21.5,79.5l6.2-6.2c0.3-0.3,0.3-0.7,0-1c-0.3-0.3-0.7-0.3-1,0l-6.2,6.2c-0.3,0.3-0.3,0.7,0,1
		C20.8,79.8,21.2,79.8,21.5,79.5"/>
	<path d="M73.3,27.7l6.2-6.2c0.3-0.3,0.3-0.7,0-1s-0.7-0.3-1,0l-6.2,6.2c-0.3,0.3-0.3,0.7,0,1C72.6,27.9,73,27.9,73.3,27.7"/>
	<path d="M40.3,89.7l2.3-8.5c0.1-0.4-0.1-0.8-0.5-0.9s-0.8,0.1-0.9,0.5l-2.3,8.5c-0.1,0.4,0.1,0.8,0.5,0.9S40.2,90.1,40.3,89.7"/>
	<path d="M59.3,18.9l2.3-8.5c0.1-0.4-0.1-0.8-0.5-0.9c-0.4-0.1-0.8,0.1-0.9,0.5l-2.3,8.5c-0.1,0.4,0.1,0.8,0.5,0.9
		C58.8,19.5,59.2,19.3,59.3,18.9"/>
	<path d="M61.5,89.8l-2.3-8.5c-0.1-0.4-0.5-0.6-0.9-0.5c-0.4,0.1-0.6,0.5-0.5,0.9l2.3,8.5c0.1,0.4,0.5,0.6,0.9,0.5
		C61.4,90.6,61.6,90.2,61.5,89.8"/>
	<path d="M42.6,19l-2.3-8.5c-0.1-0.4-0.5-0.6-0.9-0.5c-0.4,0.1-0.6,0.5-0.5,0.9l2.3,8.5c0.1,0.4,0.5,0.6,0.9,0.5
		C42.4,19.8,42.7,19.4,42.6,19"/>
	<path d="M7.3,26.5l2.9,1.7c0.3,0.2,0.8,0.1,1-0.3c0.2-0.3,0.1-0.8-0.3-1l-2.9-1.7c-0.3-0.2-0.8-0.1-1,0.3C6.9,25.9,7,26.3,7.3,26.5
		"/>
	<path d="M13.6,30.2l2.9,1.7c0.3,0.2,0.8,0.1,1-0.3c0.2-0.3,0.1-0.8-0.3-1L14.3,29c-0.3-0.2-0.8-0.1-1,0.3
		C13.2,29.5,13.3,30,13.6,30.2"/>
	<path d="M83.8,70.7l2.9,1.7c0.3,0.2,0.8,0.1,1-0.3c0.2-0.3,0.1-0.8-0.3-1l-2.9-1.7c-0.3-0.2-0.8-0.1-1,0.3
		C83.3,70,83.4,70.5,83.8,70.7"/>
	<path d="M90.1,74.3l2.9,1.7c0.3,0.2,0.8,0.1,1-0.3c0.2-0.3,0.1-0.8-0.3-1l-2.9-1.7c-0.3-0.2-0.8-0.1-1,0.3
		C89.6,73.7,89.7,74.1,90.1,74.3"/>
	<path d="M0.7,51H4c0.4,0,0.7-0.3,0.7-0.7c0-0.4-0.3-0.7-0.7-0.7H0.7c-0.4,0-0.7,0.3-0.7,0.7C0,50.6,0.3,51,0.7,51"/>
	<path d="M8,51h3.3c0.4,0,0.7-0.3,0.7-0.7c0-0.4-0.3-0.7-0.7-0.7H8c-0.4,0-0.7,0.3-0.7,0.7C7.3,50.6,7.6,51,8,51"/>
	<path d="M88.9,51h3.3c0.4,0,0.7-0.3,0.7-0.7c0-0.4-0.3-0.7-0.7-0.7h-3.3c-0.4,0-0.7,0.3-0.7,0.7C88.2,50.6,88.6,51,88.9,51"/>
	<path d="M96.2,51h3.3c0.4,0,0.7-0.3,0.7-0.7c0-0.4-0.3-0.7-0.7-0.7h-3.3c-0.4,0-0.7,0.3-0.7,0.7C95.5,50.6,95.8,51,96.2,51"/>
	<path d="M8.1,76l2.9-1.7c0.3-0.2,0.5-0.6,0.3-1c-0.2-0.3-0.6-0.5-1-0.3l-2.9,1.7c-0.3,0.2-0.5,0.6-0.3,1C7.3,76,7.7,76.1,8.1,76"/>
	<path d="M14.4,72.3l2.9-1.7c0.3-0.2,0.5-0.6,0.3-1c-0.2-0.3-0.6-0.5-1-0.3l-2.9,1.7c-0.3,0.2-0.5,0.6-0.3,1
		C13.6,72.4,14,72.5,14.4,72.3"/>
	<path d="M84.5,31.8l2.9-1.7c0.3-0.2,0.5-0.6,0.3-1c-0.2-0.3-0.6-0.5-1-0.3l-2.9,1.7c-0.3,0.2-0.5,0.6-0.3,1
		C83.7,31.9,84.1,32,84.5,31.8"/>
	<path d="M90.8,28.2l2.9-1.7c0.3-0.2,0.5-0.6,0.3-1c-0.2-0.3-0.6-0.5-1-0.3L90.1,27c-0.3,0.2-0.5,0.6-0.3,1
		C90,28.3,90.4,28.4,90.8,28.2"/>
	<path d="M26,93.4l1.7-2.9c0.2-0.3,0.1-0.8-0.3-1c-0.3-0.2-0.8-0.1-1,0.3l-1.7,2.9c-0.2,0.3-0.1,0.8,0.3,1
		C25.4,93.9,25.8,93.7,26,93.4"/>
	<path d="M29.7,87.1l1.7-2.9c0.2-0.3,0.1-0.8-0.3-1c-0.3-0.2-0.8-0.1-1,0.3l-1.7,2.9c-0.2,0.3-0.1,0.8,0.3,1
		C29,87.6,29.5,87.4,29.7,87.1"/>
	<path d="M70.1,17l1.7-2.9c0.2-0.3,0.1-0.8-0.3-1c-0.3-0.2-0.8-0.1-1,0.3l-1.7,2.9c-0.2,0.3-0.1,0.8,0.3,1
		C69.5,17.4,69.9,17.3,70.1,17"/>
	<path d="M73.8,10.7l1.7-2.9c0.2-0.3,0.1-0.8-0.3-1c-0.3-0.2-0.8-0.1-1,0.3L72.6,10c-0.2,0.3-0.1,0.8,0.3,1
		C73.2,11.1,73.6,11,73.8,10.7"/>
	<path d="M51.1,99.5v-3.3c0-0.4-0.3-0.7-0.7-0.7c-0.4,0-0.7,0.3-0.7,0.7v3.3c0,0.4,0.3,0.7,0.7,0.7C50.7,100.2,51.1,99.9,51.1,99.5"
		/>
	<path d="M51.1,92.3l0-3.3c0-0.4-0.3-0.7-0.7-0.7c-0.4,0-0.7,0.3-0.7,0.7v3.3c0,0.4,0.3,0.7,0.7,0.7C50.7,93,51.1,92.7,51.1,92.3"/>
	<path d="M51.1,11.3V8c0-0.4-0.3-0.7-0.7-0.7c-0.4,0-0.7,0.3-0.7,0.7v3.3c0,0.4,0.3,0.7,0.7,0.7C50.7,12,51.1,11.7,51.1,11.3"/>
	<path d="M51.1,4V0.7c0-0.4-0.3-0.7-0.7-0.7s-0.7,0.3-0.7,0.7V4c0,0.4,0.3,0.7,0.7,0.7C50.7,4.7,51.1,4.4,51.1,4"/>
	<path d="M75.8,93.1l-1.7-2.9c-0.2-0.3-0.6-0.5-1-0.3c-0.3,0.2-0.5,0.6-0.3,1l1.7,2.9c0.2,0.3,0.6,0.5,1,0.3
		C75.9,93.8,76,93.4,75.8,93.1"/>
	<path d="M72.2,86.8l-1.7-2.9c-0.2-0.3-0.6-0.5-1-0.3c-0.3,0.2-0.5,0.6-0.3,1l1.7,2.9c0.2,0.3,0.6,0.5,1,0.3
		C72.3,87.6,72.4,87.1,72.2,86.8"/>
	<path d="M31.7,16.7L30,13.8c-0.2-0.3-0.6-0.5-1-0.3c-0.3,0.2-0.5,0.6-0.3,1l1.7,2.9c0.2,0.3,0.6,0.5,1,0.3
		C31.8,17.4,31.9,17,31.7,16.7"/>
	<path d="M28.1,10.4l-1.7-2.9c-0.2-0.3-0.6-0.5-1-0.3c-0.3,0.2-0.5,0.6-0.3,1l1.7,2.9c0.2,0.3,0.6,0.5,1,0.3
		C28.1,11.1,28.3,10.7,28.1,10.4"/>
</g>
<g>
</g>
<g>
</g>
<g>
</g>
<g>
</g>
<g>
</g>
<g>
</g>
</svg>
